# xmcd
#
# Track frame offsets:
#	150
#	17607
#	30588
#	48374
#	58962
#	77833
#	104431
#	118639
#	140191
#	160278
#
# Disc length: 2353 seconds
# Revision: 0
# Processed by: cddbd v1.5.2PL0 Copyright (c) Steve Scherf et al.
# Submitted via: dBpowerAMP V12.0
#
DISCID=87092f0a
DTITLE=Crowes Pasture - Edge Of America
DYEAR=2017
DGENRE=Country
TTITLE0=Edge of America
TTITLE1=Its All Over Now, Baby Blue
TTITLE2=The Champ
TTITLE3=Catch the Wind
TTITLE4=Grant's Song
TTITLE5=Just Like Tom Thumb's Blues
TTITLE6=Darkness Outside
TTITLE7=Shelter From the Storm
TTITLE8=The Storm
TTITLE9=Tonight Will Be Fine
EXTD=
EXTT0=
EXTT1=
EXTT2=
EXTT3=
EXTT4=
EXTT5=
EXTT6=
EXTT7=
EXTT8=
EXTT9=
PLAYORDER=
